<svg width="23" height="21" viewBox="0 0 23 21" fill="none" xmlns="http://www.w3.org/2000/svg">
<path d="M4.60303 17.1421L2.64055 7.81929H4.74983H17.593H19.796L17.7917 17.1502C17.5938 18.0719 16.7791 18.7302 15.8363 18.7302H6.56014C5.61435 18.7302 4.79786 18.0676 4.60303 17.1421Z" fill="white"/>
<path d="M1 7.81929H4.74983M21.3897 7.81929H19.796M19.796 7.81929L17.7917 17.1502C17.5938 18.0719 16.7791 18.7302 15.8363 18.7302H6.56014C5.61435 18.7302 4.79786 18.0676 4.60303 17.1421L2.64055 7.81929H19.796ZM19.796 7.81929H4.74983M8.73402 1L4.74983 7.81929M13.6088 1L17.593 7.81929" stroke="white" stroke-width="2" stroke-linecap="round"/>
</svg>
